# xmcd CD database file
#
# Track frame offsets:
#	150
#	31335
#	62308
#	86963
#	118581
#	137891
#	167462
#	186921
#	202922
#	221339
#	242861
#	258247
#	279113
#	303584
#
# Disc length: 4343 seconds
#
# Revision: 0
# Processed by: cddbd v1.5.1PL2 Copyright (c) Steve Scherf et al.
# Submitted via: CDex 1.51
#
DISCID=bf10f50e
DTITLE=Craig Chaquico  - Panorama
DYEAR=2000
DGENRE=Jazz
TTITLE0=Native Toungue (New At Two)
TTITLE1=Sacred Ground
TTITLE2=Forbidden Love
TTITLE3=Gathering Of The Tribes
TTITLE4=Cafe Carnival
TTITLE5=Return Of The Eagle
TTITLE6=Gypsy Nights
TTITLE7=Lights Out San Francisco
TTITLE8=Beyond Words
TTITLE9=Blue Universe
TTITLE10=Sweet Talk
TTITLE11=Autumn Blue
TTITLE12=Find Your Way Back
TTITLE13=Acoustic Highway
EXTD=YEAR: 2000
EXTT0=
EXTT1=
EXTT2=
EXTT3=
EXTT4=
EXTT5=
EXTT6=
EXTT7=
EXTT8=
EXTT9=
EXTT10=
EXTT11=
EXTT12=
EXTT13=
PLAYORDER=
